<svg width="25" height="24" viewBox="0 0 25 24" fill="none" xmlns="http://www.w3.org/2000/svg">
<path fill-rule="evenodd" clip-rule="evenodd" d="M5.33325 13H17.1983L13.5653 17.36C13.2113 17.784 13.2693 18.415 13.6933 18.768C14.1183 19.122 14.7483 19.064 15.1023 18.64L20.1023 12.64C20.1413 12.593 20.1603 12.538 20.1893 12.486C20.2133 12.444 20.2423 12.408 20.2603 12.362C20.3053 12.247 20.3323 12.126 20.3323 12.004C20.3323 12.003 20.3333 12.001 20.3333 12C20.3333 11.999 20.3323 11.997 20.3323 11.996C20.3323 11.874 20.3053 11.753 20.2603 11.638C20.2423 11.592 20.2133 11.556 20.1893 11.514C20.1603 11.462 20.1413 11.407 20.1023 11.36L15.1023 5.36C14.9033 5.123 14.6193 5 14.3333 5C14.1073 5 13.8803 5.076 13.6933 5.232C13.2693 5.585 13.2113 6.216 13.5653 6.64L17.1983 11H5.33325C4.78125 11 4.33325 11.448 4.33325 12C4.33325 12.552 4.78125 13 5.33325 13Z" fill="#25A59E"/>
<mask id="mask0_961_131" style="mask-type:luminance" maskUnits="userSpaceOnUse" x="4" y="5" width="17" height="14">
<path fill-rule="evenodd" clip-rule="evenodd" d="M5.33325 13H17.1983L13.5653 17.36C13.2113 17.784 13.2693 18.415 13.6933 18.768C14.1183 19.122 14.7483 19.064 15.1023 18.64L20.1023 12.64C20.1413 12.593 20.1603 12.538 20.1893 12.486C20.2133 12.444 20.2423 12.408 20.2603 12.362C20.3053 12.247 20.3323 12.126 20.3323 12.004C20.3323 12.003 20.3333 12.001 20.3333 12C20.3333 11.999 20.3323 11.997 20.3323 11.996C20.3323 11.874 20.3053 11.753 20.2603 11.638C20.2423 11.592 20.2133 11.556 20.1893 11.514C20.1603 11.462 20.1413 11.407 20.1023 11.36L15.1023 5.36C14.9033 5.123 14.6193 5 14.3333 5C14.1073 5 13.8803 5.076 13.6933 5.232C13.2693 5.585 13.2113 6.216 13.5653 6.64L17.1983 11H5.33325C4.78125 11 4.33325 11.448 4.33325 12C4.33325 12.552 4.78125 13 5.33325 13Z" fill="white"/>
</mask>
<g mask="url(#mask0_961_131)">
<rect x="0.333252" width="24" height="24" fill="#25A59E"/>
</g>
</svg>
