<svg width="25" height="24" viewBox="0 0 25 24" fill="none" xmlns="http://www.w3.org/2000/svg">
<path fill-rule="evenodd" clip-rule="evenodd" d="M5.6665 13H17.5315L13.8985 17.36C13.5445 17.784 13.6025 18.415 14.0265 18.768C14.4515 19.122 15.0815 19.064 15.4355 18.64L20.4355 12.64C20.4745 12.593 20.4935 12.538 20.5225 12.486C20.5465 12.444 20.5755 12.408 20.5935 12.362C20.6385 12.247 20.6655 12.126 20.6655 12.004C20.6655 12.003 20.6665 12.001 20.6665 12C20.6665 11.999 20.6655 11.997 20.6655 11.996C20.6655 11.874 20.6385 11.753 20.5935 11.638C20.5755 11.592 20.5465 11.556 20.5225 11.514C20.4935 11.462 20.4745 11.407 20.4355 11.36L15.4355 5.36C15.2365 5.123 14.9525 5 14.6665 5C14.4405 5 14.2135 5.076 14.0265 5.232C13.6025 5.585 13.5445 6.216 13.8985 6.64L17.5315 11H5.6665C5.1145 11 4.6665 11.448 4.6665 12C4.6665 12.552 5.1145 13 5.6665 13Z" fill="white"/>
<mask id="mask0_961_93" style="mask-type:luminance" maskUnits="userSpaceOnUse" x="4" y="5" width="17" height="14">
<path fill-rule="evenodd" clip-rule="evenodd" d="M5.6665 13H17.5315L13.8985 17.36C13.5445 17.784 13.6025 18.415 14.0265 18.768C14.4515 19.122 15.0815 19.064 15.4355 18.64L20.4355 12.64C20.4745 12.593 20.4935 12.538 20.5225 12.486C20.5465 12.444 20.5755 12.408 20.5935 12.362C20.6385 12.247 20.6655 12.126 20.6655 12.004C20.6655 12.003 20.6665 12.001 20.6665 12C20.6665 11.999 20.6655 11.997 20.6655 11.996C20.6655 11.874 20.6385 11.753 20.5935 11.638C20.5755 11.592 20.5465 11.556 20.5225 11.514C20.4935 11.462 20.4745 11.407 20.4355 11.36L15.4355 5.36C15.2365 5.123 14.9525 5 14.6665 5C14.4405 5 14.2135 5.076 14.0265 5.232C13.6025 5.585 13.5445 6.216 13.8985 6.64L17.5315 11H5.6665C5.1145 11 4.6665 11.448 4.6665 12C4.6665 12.552 5.1145 13 5.6665 13Z" fill="white"/>
</mask>
<g mask="url(#mask0_961_93)">
<rect x="0.666504" width="24" height="24" fill="white"/>
</g>
</svg>
