<svg width="209" height="32" viewBox="0 0 209 32" fill="none" xmlns="http://www.w3.org/2000/svg">
<path d="M14.0001 17.6683C16.0104 17.6683 17.6401 16.0386 17.6401 14.0283C17.6401 12.018 16.0104 10.3883 14.0001 10.3883C11.9898 10.3883 10.3601 12.018 10.3601 14.0283C10.3601 16.0386 11.9898 17.6683 14.0001 17.6683Z" stroke="#A6A6A6" stroke-width="1.5"/>
<path d="M4.2234 11.905C6.52173 1.80171 21.4901 1.81338 23.7767 11.9167C25.1184 17.8434 21.4317 22.86 18.2001 25.9634C15.8551 28.2267 12.1451 28.2267 9.7884 25.9634C6.5684 22.86 2.88173 17.8317 4.2234 11.905Z" stroke="#A6A6A6" stroke-width="1.5"/>
<path d="M45.481 22.234C44.809 22.234 44.158 22.129 43.528 21.919C42.904 21.709 42.358 21.409 41.89 21.019C41.422 20.629 41.092 20.164 40.9 19.624L42.079 19.183C42.211 19.555 42.451 19.876 42.799 20.146C43.153 20.41 43.564 20.614 44.032 20.758C44.506 20.902 44.989 20.974 45.481 20.974C46.057 20.974 46.594 20.878 47.092 20.686C47.59 20.494 47.992 20.227 48.298 19.885C48.604 19.537 48.757 19.129 48.757 18.661C48.757 18.187 48.598 17.797 48.28 17.491C47.962 17.185 47.551 16.945 47.047 16.771C46.549 16.591 46.027 16.453 45.481 16.357C44.623 16.207 43.852 16.003 43.168 15.745C42.49 15.487 41.953 15.124 41.557 14.656C41.161 14.182 40.963 13.558 40.963 12.784C40.963 12.058 41.173 11.428 41.593 10.894C42.013 10.36 42.565 9.946 43.249 9.652C43.939 9.358 44.683 9.211 45.481 9.211C46.135 9.211 46.774 9.313 47.398 9.517C48.022 9.721 48.571 10.018 49.045 10.408C49.525 10.798 49.87 11.275 50.08 11.839L48.883 12.271C48.751 11.893 48.508 11.572 48.154 11.308C47.806 11.038 47.398 10.834 46.93 10.696C46.462 10.552 45.979 10.48 45.481 10.48C44.911 10.474 44.377 10.57 43.879 10.768C43.387 10.96 42.988 11.23 42.682 11.578C42.376 11.92 42.223 12.322 42.223 12.784C42.223 13.324 42.364 13.741 42.646 14.035C42.934 14.323 43.324 14.539 43.816 14.683C44.308 14.827 44.863 14.956 45.481 15.07C46.285 15.208 47.032 15.424 47.722 15.718C48.412 16.006 48.967 16.393 49.387 16.879C49.807 17.359 50.017 17.953 50.017 18.661C50.017 19.381 49.807 20.011 49.387 20.551C48.967 21.085 48.412 21.499 47.722 21.793C47.038 22.087 46.291 22.234 45.481 22.234ZM55.9033 22.234C55.0753 22.234 54.3193 22.021 53.6353 21.595C52.9573 21.169 52.4143 20.599 52.0063 19.885C51.6043 19.165 51.4033 18.37 51.4033 17.5C51.4033 16.84 51.5203 16.225 51.7543 15.655C51.9883 15.079 52.3093 14.575 52.7173 14.143C53.1313 13.705 53.6113 13.363 54.1573 13.117C54.7033 12.871 55.2853 12.748 55.9033 12.748C56.5693 12.748 57.1813 12.88 57.7393 13.144C58.3033 13.408 58.7863 13.777 59.1883 14.251C59.5963 14.725 59.9023 15.28 60.1063 15.916C60.3163 16.552 60.4033 17.239 60.3673 17.977H52.7353C52.8073 18.547 52.9873 19.057 53.2753 19.507C53.5693 19.957 53.9413 20.314 54.3913 20.578C54.8473 20.836 55.3513 20.968 55.9033 20.974C56.5033 20.974 57.0433 20.818 57.5233 20.506C58.0093 20.194 58.3993 19.765 58.6933 19.219L59.9713 19.516C59.6113 20.314 59.0683 20.968 58.3423 21.478C57.6163 21.982 56.8033 22.234 55.9033 22.234ZM52.6993 16.96H59.0983C59.0563 16.402 58.8853 15.892 58.5853 15.43C58.2913 14.962 57.9103 14.59 57.4423 14.314C56.9743 14.032 56.4613 13.891 55.9033 13.891C55.3453 13.891 54.8353 14.029 54.3733 14.305C53.9113 14.575 53.5333 14.944 53.2393 15.412C52.9453 15.874 52.7653 16.39 52.6993 16.96ZM69.2202 13H70.4802V22H69.2202L69.1752 20.326C68.8812 20.896 68.4702 21.358 67.9422 21.712C67.4142 22.06 66.7842 22.234 66.0522 22.234C65.3922 22.234 64.7742 22.111 64.1982 21.865C63.6222 21.613 63.1152 21.268 62.6772 20.83C62.2392 20.392 61.8972 19.885 61.6512 19.309C61.4052 18.733 61.2822 18.115 61.2822 17.455C61.2822 16.807 61.4022 16.198 61.6422 15.628C61.8882 15.058 62.2242 14.557 62.6502 14.125C63.0822 13.693 63.5802 13.357 64.1442 13.117C64.7142 12.871 65.3232 12.748 65.9712 12.748C66.7212 12.748 67.3752 12.928 67.9332 13.288C68.4912 13.642 68.9352 14.107 69.2652 14.683L69.2202 13ZM66.0252 21.01C66.6672 21.01 67.2192 20.854 67.6812 20.542C68.1432 20.224 68.4972 19.798 68.7432 19.264C68.9952 18.73 69.1212 18.142 69.1212 17.5C69.1212 16.84 68.9952 16.246 68.7432 15.718C68.4912 15.184 68.1342 14.761 67.6722 14.449C67.2102 14.137 66.6612 13.981 66.0252 13.981C65.3892 13.981 64.8072 14.14 64.2792 14.458C63.7572 14.77 63.3402 15.193 63.0282 15.727C62.7222 16.261 62.5692 16.852 62.5692 17.5C62.5692 18.154 62.7282 18.748 63.0462 19.282C63.3642 19.81 63.7842 20.23 64.3062 20.542C64.8342 20.854 65.4072 21.01 66.0252 21.01ZM72.2812 22V13H73.5412V14.242C73.8592 13.786 74.2732 13.423 74.7832 13.153C75.2932 12.883 75.8482 12.748 76.4482 12.748C76.7962 12.748 77.1322 12.793 77.4562 12.883L76.9432 14.134C76.6912 14.056 76.4452 14.017 76.2052 14.017C75.7192 14.017 75.2722 14.137 74.8642 14.377C74.4622 14.617 74.1412 14.938 73.9012 15.34C73.6612 15.742 73.5412 16.189 73.5412 16.681V22H72.2812ZM84.5431 19.741L85.6681 20.353C85.2601 20.923 84.7411 21.379 84.1111 21.721C83.4871 22.063 82.8091 22.234 82.0771 22.234C81.2491 22.234 80.4931 22.021 79.8091 21.595C79.1311 21.169 78.5881 20.599 78.1801 19.885C77.7781 19.165 77.5771 18.37 77.5771 17.5C77.5771 16.84 77.6941 16.225 77.9281 15.655C78.1621 15.079 78.4831 14.575 78.8911 14.143C79.3051 13.705 79.7851 13.363 80.3311 13.117C80.8771 12.871 81.4591 12.748 82.0771 12.748C82.8091 12.748 83.4871 12.919 84.1111 13.261C84.7411 13.603 85.2601 14.062 85.6681 14.638L84.5431 15.241C84.2311 14.845 83.8561 14.542 83.4181 14.332C82.9801 14.116 82.5331 14.008 82.0771 14.008C81.4711 14.008 80.9221 14.17 80.4301 14.494C79.9381 14.812 79.5481 15.235 79.2601 15.763C78.9781 16.291 78.8371 16.87 78.8371 17.5C78.8371 18.13 78.9811 18.709 79.2691 19.237C79.5631 19.765 79.9561 20.188 80.4481 20.506C80.9401 20.818 81.4831 20.974 82.0771 20.974C82.5691 20.974 83.0311 20.86 83.4631 20.632C83.8951 20.404 84.2551 20.107 84.5431 19.741ZM95.0178 16.429V22H93.7578V16.681C93.7578 16.189 93.6378 15.742 93.3978 15.34C93.1578 14.938 92.8368 14.617 92.4348 14.377C92.0328 14.137 91.5858 14.017 91.0938 14.017C90.6078 14.017 90.1608 14.137 89.7528 14.377C89.3508 14.617 89.0298 14.938 88.7898 15.34C88.5498 15.742 88.4298 16.189 88.4298 16.681V22H87.1698V8.5H88.4298V14.242C88.7478 13.786 89.1618 13.423 89.6718 13.153C90.1818 12.883 90.7368 12.748 91.3368 12.748C92.0148 12.748 92.6328 12.913 93.1908 13.243C93.7488 13.573 94.1928 14.017 94.5228 14.575C94.8528 15.133 95.0178 15.751 95.0178 16.429ZM108.551 8.5H109.811V22H108.551V20.317C108.239 20.893 107.81 21.358 107.264 21.712C106.724 22.06 106.082 22.234 105.338 22.234C104.684 22.234 104.072 22.111 103.502 21.865C102.932 21.619 102.428 21.28 101.99 20.848C101.558 20.41 101.219 19.906 100.973 19.336C100.727 18.766 100.604 18.154 100.604 17.5C100.604 16.846 100.727 16.234 100.973 15.664C101.219 15.088 101.558 14.584 101.99 14.152C102.428 13.714 102.932 13.372 103.502 13.126C104.072 12.88 104.684 12.757 105.338 12.757C106.082 12.757 106.724 12.934 107.264 13.288C107.81 13.636 108.239 14.095 108.551 14.665V8.5ZM105.347 21.01C105.989 21.01 106.541 20.854 107.003 20.542C107.465 20.224 107.819 19.798 108.065 19.264C108.317 18.73 108.443 18.142 108.443 17.5C108.443 16.84 108.317 16.246 108.065 15.718C107.813 15.184 107.456 14.761 106.994 14.449C106.532 14.137 105.983 13.981 105.347 13.981C104.711 13.981 104.132 14.14 103.61 14.458C103.088 14.77 102.671 15.193 102.359 15.727C102.047 16.261 101.891 16.852 101.891 17.5C101.891 18.154 102.05 18.748 102.368 19.282C102.686 19.81 103.106 20.23 103.628 20.542C104.156 20.854 104.729 21.01 105.347 21.01ZM115.862 22.234C115.034 22.234 114.278 22.021 113.594 21.595C112.916 21.169 112.373 20.599 111.965 19.885C111.563 19.165 111.362 18.37 111.362 17.5C111.362 16.84 111.479 16.225 111.713 15.655C111.947 15.079 112.268 14.575 112.676 14.143C113.09 13.705 113.57 13.363 114.116 13.117C114.662 12.871 115.244 12.748 115.862 12.748C116.528 12.748 117.14 12.88 117.698 13.144C118.262 13.408 118.745 13.777 119.147 14.251C119.555 14.725 119.861 15.28 120.065 15.916C120.275 16.552 120.362 17.239 120.326 17.977H112.694C112.766 18.547 112.946 19.057 113.234 19.507C113.528 19.957 113.9 20.314 114.35 20.578C114.806 20.836 115.31 20.968 115.862 20.974C116.462 20.974 117.002 20.818 117.482 20.506C117.968 20.194 118.358 19.765 118.652 19.219L119.93 19.516C119.57 20.314 119.027 20.968 118.301 21.478C117.575 21.982 116.762 22.234 115.862 22.234ZM112.658 16.96H119.057C119.015 16.402 118.844 15.892 118.544 15.43C118.25 14.962 117.869 14.59 117.401 14.314C116.933 14.032 116.42 13.891 115.862 13.891C115.304 13.891 114.794 14.029 114.332 14.305C113.87 14.575 113.492 14.944 113.198 15.412C112.904 15.874 112.724 16.39 112.658 16.96ZM124.668 22.171C124.176 22.159 123.696 22.069 123.228 21.901C122.76 21.733 122.352 21.505 122.004 21.217C121.656 20.929 121.407 20.602 121.257 20.236L122.346 19.768C122.442 20.002 122.619 20.218 122.877 20.416C123.141 20.608 123.441 20.764 123.777 20.884C124.113 20.998 124.446 21.055 124.776 21.055C125.142 21.055 125.484 20.995 125.802 20.875C126.12 20.755 126.378 20.584 126.576 20.362C126.78 20.134 126.882 19.867 126.882 19.561C126.882 19.231 126.774 18.973 126.558 18.787C126.342 18.595 126.069 18.445 125.739 18.337C125.409 18.223 125.07 18.115 124.722 18.013C124.086 17.839 123.525 17.647 123.039 17.437C122.553 17.227 122.172 16.96 121.896 16.636C121.626 16.306 121.491 15.883 121.491 15.367C121.491 14.821 121.644 14.35 121.95 13.954C122.262 13.552 122.667 13.243 123.165 13.027C123.669 12.805 124.206 12.694 124.776 12.694C125.508 12.694 126.174 12.853 126.774 13.171C127.38 13.489 127.818 13.912 128.088 14.44L127.071 15.043C126.963 14.797 126.792 14.584 126.558 14.404C126.324 14.224 126.057 14.083 125.757 13.981C125.463 13.879 125.163 13.825 124.857 13.819C124.473 13.813 124.116 13.87 123.786 13.99C123.456 14.104 123.189 14.275 122.985 14.503C122.787 14.731 122.688 15.01 122.688 15.34C122.688 15.67 122.787 15.922 122.985 16.096C123.183 16.264 123.45 16.402 123.786 16.51C124.128 16.612 124.512 16.732 124.938 16.87C125.484 17.044 125.997 17.242 126.477 17.464C126.957 17.686 127.344 17.962 127.638 18.292C127.932 18.622 128.076 19.039 128.07 19.543C128.07 20.083 127.908 20.554 127.584 20.956C127.26 21.358 126.84 21.667 126.324 21.883C125.808 22.093 125.256 22.189 124.668 22.171ZM134.22 14.26H132.069L132.06 22H130.8L130.809 14.26H129.18V13H130.809L130.8 10.174H132.06L132.069 13H134.22V14.26ZM135.756 13H137.016V22H135.756V13ZM136.395 11.425C136.191 11.425 136.017 11.359 135.873 11.227C135.735 11.089 135.666 10.918 135.666 10.714C135.666 10.51 135.735 10.342 135.873 10.21C136.017 10.072 136.191 10.003 136.395 10.003C136.593 10.003 136.761 10.072 136.899 10.21C137.043 10.342 137.115 10.51 137.115 10.714C137.115 10.918 137.046 11.089 136.908 11.227C136.77 11.359 136.599 11.425 136.395 11.425ZM146.996 16.429V22H145.736V16.681C145.736 16.189 145.616 15.742 145.376 15.34C145.136 14.938 144.815 14.617 144.413 14.377C144.011 14.137 143.564 14.017 143.072 14.017C142.586 14.017 142.139 14.137 141.731 14.377C141.329 14.617 141.008 14.938 140.768 15.34C140.528 15.742 140.408 16.189 140.408 16.681V22H139.148V13H140.408V14.242C140.726 13.786 141.14 13.423 141.65 13.153C142.16 12.883 142.715 12.748 143.315 12.748C143.993 12.748 144.611 12.913 145.169 13.243C145.727 13.573 146.171 14.017 146.501 14.575C146.831 15.133 146.996 15.751 146.996 16.429ZM156.021 13H157.281V22H156.021L155.976 20.326C155.682 20.896 155.271 21.358 154.743 21.712C154.215 22.06 153.585 22.234 152.853 22.234C152.193 22.234 151.575 22.111 150.999 21.865C150.423 21.613 149.916 21.268 149.478 20.83C149.04 20.392 148.698 19.885 148.452 19.309C148.206 18.733 148.083 18.115 148.083 17.455C148.083 16.807 148.203 16.198 148.443 15.628C148.689 15.058 149.025 14.557 149.451 14.125C149.883 13.693 150.381 13.357 150.945 13.117C151.515 12.871 152.124 12.748 152.772 12.748C153.522 12.748 154.176 12.928 154.734 13.288C155.292 13.642 155.736 14.107 156.066 14.683L156.021 13ZM152.826 21.01C153.468 21.01 154.02 20.854 154.482 20.542C154.944 20.224 155.298 19.798 155.544 19.264C155.796 18.73 155.922 18.142 155.922 17.5C155.922 16.84 155.796 16.246 155.544 15.718C155.292 15.184 154.935 14.761 154.473 14.449C154.011 14.137 153.462 13.981 152.826 13.981C152.19 13.981 151.608 14.14 151.08 14.458C150.558 14.77 150.141 15.193 149.829 15.727C149.523 16.261 149.37 16.852 149.37 17.5C149.37 18.154 149.529 18.748 149.847 19.282C150.165 19.81 150.585 20.23 151.107 20.542C151.635 20.854 152.208 21.01 152.826 21.01ZM163.681 14.26H161.53L161.521 22H160.261L160.27 14.26H158.641V13H160.27L160.261 10.174H161.521L161.53 13H163.681V14.26ZM165.217 13H166.477V22H165.217V13ZM165.856 11.425C165.652 11.425 165.478 11.359 165.334 11.227C165.196 11.089 165.127 10.918 165.127 10.714C165.127 10.51 165.196 10.342 165.334 10.21C165.478 10.072 165.652 10.003 165.856 10.003C166.054 10.003 166.222 10.072 166.36 10.21C166.504 10.342 166.576 10.51 166.576 10.714C166.576 10.918 166.507 11.089 166.369 11.227C166.231 11.359 166.06 11.425 165.856 11.425ZM172.517 22.234C171.689 22.234 170.933 22.021 170.249 21.595C169.571 21.169 169.028 20.599 168.62 19.885C168.218 19.165 168.017 18.37 168.017 17.5C168.017 16.84 168.134 16.225 168.368 15.655C168.602 15.079 168.923 14.575 169.331 14.143C169.745 13.705 170.225 13.363 170.771 13.117C171.317 12.871 171.899 12.748 172.517 12.748C173.345 12.748 174.098 12.961 174.776 13.387C175.46 13.813 176.003 14.386 176.405 15.106C176.813 15.826 177.017 16.624 177.017 17.5C177.017 18.154 176.9 18.766 176.666 19.336C176.432 19.906 176.108 20.41 175.694 20.848C175.286 21.28 174.809 21.619 174.263 21.865C173.723 22.111 173.141 22.234 172.517 22.234ZM172.517 20.974C173.129 20.974 173.678 20.815 174.164 20.497C174.656 20.173 175.043 19.747 175.325 19.219C175.613 18.691 175.757 18.118 175.757 17.5C175.757 16.87 175.613 16.291 175.325 15.763C175.037 15.229 174.647 14.803 174.155 14.485C173.669 14.167 173.123 14.008 172.517 14.008C171.905 14.008 171.353 14.17 170.861 14.494C170.375 14.812 169.988 15.235 169.7 15.763C169.418 16.291 169.277 16.87 169.277 17.5C169.277 18.148 169.424 18.736 169.718 19.264C170.012 19.786 170.405 20.203 170.897 20.515C171.389 20.821 171.929 20.974 172.517 20.974ZM186.389 16.429V22H185.129V16.681C185.129 16.189 185.009 15.742 184.769 15.34C184.529 14.938 184.208 14.617 183.806 14.377C183.404 14.137 182.957 14.017 182.465 14.017C181.979 14.017 181.532 14.137 181.124 14.377C180.722 14.617 180.401 14.938 180.161 15.34C179.921 15.742 179.801 16.189 179.801 16.681V22H178.541V13H179.801V14.242C180.119 13.786 180.533 13.423 181.043 13.153C181.553 12.883 182.108 12.748 182.708 12.748C183.386 12.748 184.004 12.913 184.562 13.243C185.12 13.573 185.564 14.017 185.894 14.575C186.224 15.133 186.389 15.751 186.389 16.429ZM190.972 22.171C190.48 22.159 190 22.069 189.532 21.901C189.064 21.733 188.656 21.505 188.308 21.217C187.96 20.929 187.711 20.602 187.561 20.236L188.65 19.768C188.746 20.002 188.923 20.218 189.181 20.416C189.445 20.608 189.745 20.764 190.081 20.884C190.417 20.998 190.75 21.055 191.08 21.055C191.446 21.055 191.788 20.995 192.106 20.875C192.424 20.755 192.682 20.584 192.88 20.362C193.084 20.134 193.186 19.867 193.186 19.561C193.186 19.231 193.078 18.973 192.862 18.787C192.646 18.595 192.373 18.445 192.043 18.337C191.713 18.223 191.374 18.115 191.026 18.013C190.39 17.839 189.829 17.647 189.343 17.437C188.857 17.227 188.476 16.96 188.2 16.636C187.93 16.306 187.795 15.883 187.795 15.367C187.795 14.821 187.948 14.35 188.254 13.954C188.566 13.552 188.971 13.243 189.469 13.027C189.973 12.805 190.51 12.694 191.08 12.694C191.812 12.694 192.478 12.853 193.078 13.171C193.684 13.489 194.122 13.912 194.392 14.44L193.375 15.043C193.267 14.797 193.096 14.584 192.862 14.404C192.628 14.224 192.361 14.083 192.061 13.981C191.767 13.879 191.467 13.825 191.161 13.819C190.777 13.813 190.42 13.87 190.09 13.99C189.76 14.104 189.493 14.275 189.289 14.503C189.091 14.731 188.992 15.01 188.992 15.34C188.992 15.67 189.091 15.922 189.289 16.096C189.487 16.264 189.754 16.402 190.09 16.51C190.432 16.612 190.816 16.732 191.242 16.87C191.788 17.044 192.301 17.242 192.781 17.464C193.261 17.686 193.648 17.962 193.942 18.292C194.236 18.622 194.38 19.039 194.374 19.543C194.374 20.083 194.212 20.554 193.888 20.956C193.564 21.358 193.144 21.667 192.628 21.883C192.112 22.093 191.56 22.189 190.972 22.171ZM200.601 22.234C200.403 22.234 200.235 22.162 200.097 22.018C199.959 21.88 199.89 21.709 199.89 21.505C199.89 21.313 199.959 21.148 200.097 21.01C200.235 20.866 200.403 20.794 200.601 20.794C200.805 20.794 200.976 20.866 201.114 21.01C201.258 21.148 201.33 21.313 201.33 21.505C201.33 21.709 201.258 21.88 201.114 22.018C200.976 22.162 200.805 22.234 200.601 22.234ZM203.835 22.234C203.637 22.234 203.469 22.162 203.331 22.018C203.193 21.88 203.124 21.709 203.124 21.505C203.124 21.313 203.193 21.148 203.331 21.01C203.469 20.866 203.637 20.794 203.835 20.794C204.039 20.794 204.21 20.866 204.348 21.01C204.492 21.148 204.564 21.313 204.564 21.505C204.564 21.709 204.492 21.88 204.348 22.018C204.21 22.162 204.039 22.234 203.835 22.234ZM207.07 22.234C206.872 22.234 206.704 22.162 206.566 22.018C206.428 21.88 206.359 21.709 206.359 21.505C206.359 21.313 206.428 21.148 206.566 21.01C206.704 20.866 206.872 20.794 207.07 20.794C207.274 20.794 207.445 20.866 207.583 21.01C207.727 21.148 207.799 21.313 207.799 21.505C207.799 21.709 207.727 21.88 207.583 22.018C207.445 22.162 207.274 22.234 207.07 22.234Z" fill="#A6A6A6"/>
</svg>
